<svg version="1.1" id="Layer_1" xmlns="http://www.w3.org/2000/svg" x="0" y="0" viewBox="0 0 700 600" style="enable-background:new 0 0 700 600" xml:space="preserve"><style>.st0{fill:#79e2f2}.st1{fill:#4c9aff}.st2{fill:#ffe380}.st12{fill:#0065ff}.st15{fill:#b2d4ff}.st20{fill:#cf9e76}.st22{fill:#ffd740}.st23{fill:#ff991f}.st25{fill:#8c715d}.st26{fill:#162b4c}.st27{fill:#8893a5}.st28{fill:none}.st30{fill:#008da6}.st34{fill:#e6fcff}.st35{fill:#1db9d4}.st100{fill:#d4b696}.st101{fill:#0057d8}.st103{fill:#172b4d}.st107{fill:#505f79}.st108{fill:#a27f68}.st109{fill:#b5917c}</style><g id="Layer_2_1_"><path transform="rotate(-10.735 443.3 267.505)" class="st0" d="M431.1 265.7h24.5v3.5h-24.5z"/><path transform="rotate(-10.735 443.298 248.096)" class="st0" d="M431.1 246.3h24.5v3.5h-24.5z"/><path transform="rotate(-10.735 443.305 228.688)" class="st0" d="M431.1 226.9h24.5v3.5h-24.5z"/><path transform="rotate(-10.735 443.303 209.28)" class="st0" d="M431.1 207.5h24.5v3.5h-24.5z"/><path transform="rotate(-10.735 443.3 189.87)" class="st0" d="M431.1 188.1h24.5v3.5h-24.5z"/><path transform="rotate(-10.735 443.308 170.462)" class="st0" d="M431.1 168.7h24.5v3.5h-24.5z"/><path transform="rotate(-10.735 443.308 151.064)" class="st0" d="M431.1 149.3h24.5v3.5h-24.5z"/><path transform="rotate(-10.735 443.305 131.655)" class="st0" d="M431.1 129.9h24.5v3.5h-24.5z"/><path transform="rotate(-10.735 443.313 112.246)" class="st0" d="M431.1 110.5h24.5v3.5h-24.5z"/><path transform="rotate(-10.735 443.31 92.838)" class="st0" d="M431.1 91.1h24.5v3.5h-24.5z"/><path transform="rotate(-10.735 443.308 73.43)" class="st0" d="M431.1 71.7h24.5v3.5h-24.5z"/><path transform="rotate(-10.735 443.315 54.021)" class="st0" d="M431.1 52.2h24.5v3.5h-24.5z"/><path transform="rotate(-10.735 443.315 34.623)" class="st0" d="M431.1 32.8h24.5v3.5h-24.5z"/><path transform="rotate(-10.735 575.98 242.362)" class="st0" d="M466.9 240.6h218.3v3.5H466.9z"/><path transform="rotate(-10.735 558.455 226.287)" class="st0" d="M467.2 224.5h182.6v3.5H467.2z"/><path transform="rotate(-10.735 552.207 208.05)" class="st0" d="M467.3 206.3h169.9v3.5H467.3z"/><path transform="rotate(-10.735 580.278 183.342)" class="st1" d="M552.3 181.6h56.2v3.5h-56.2z"/><path transform="rotate(-10.735 502.408 198.086)" class="st1" d="M468.2 196.3h68.5v3.5h-68.5z"/><path transform="rotate(-10.735 547.844 170.072)" class="st0" d="M467.4 168.3h161v3.5h-161z"/><path class="st2" d="m541.7 150.1.6 3.4L700 123.6v-3.5z"/><path transform="rotate(-10.735 498.547 159.994)" class="st2" d="M468.3 158.2h60.6v3.5h-60.6z"/><path transform="rotate(-10.735 547.802 131.262)" class="st0" d="M467.4 129.5h160.9v3.5H467.4z"/><path class="st0" d="m468.5 125.1.6 3.5L700 84.8v-3.6z"/><path transform="rotate(-10.735 583.33 85.721)" class="st1" d="M558.1 83.9h50.7v3.5h-50.7z"/><path transform="rotate(-10.735 508.306 99.936)" class="st0" d="M468.1 98.2h80.5v3.5h-80.5z"/><path transform="rotate(-10.735 580.903 66.777)" class="st0" d="M466.8 65h228.3v3.5H466.8z"/><path transform="rotate(-10.735 582.146 47.142)" class="st0" d="M560.6 45.3h43.2v3.5h-43.2z"/><path transform="rotate(-10.735 514.853 59.893)" class="st0" d="M468 58.1h93.8v3.5H468z"/><path transform="rotate(-10.735 596.033 25.094)" class="st2" d="M541.6 23.3h108.9v3.5H541.6z"/><path transform="rotate(-10.735 500.133 43.274)" class="st1" d="M468.3 41.5h63.9V45h-63.9z"/><path transform="rotate(-10.735 510.735 21.849)" class="st0" d="M468.1 20.1h85.4v3.5h-85.4z"/><linearGradient id="SVGID_1_" gradientUnits="userSpaceOnUse" x1="-5380.145" y1="-50.721" x2="-5418.226" y2="165.221" gradientTransform="rotate(180 -2534.07 300)"><stop offset=".02" style="stop-color:#00c7e5;stop-opacity:0"/><stop offset="1" style="stop-color:#00c7e5;stop-opacity:.4"/></linearGradient><path style="fill:url(#SVGID_1_)" d="M24.4 485.5h613.3V600H24.4z"/><linearGradient id="SVGID_2_" gradientUnits="userSpaceOnUse" x1="-5614.81" y1="-4.93" x2="-5614.81" y2="301.73" gradientTransform="rotate(180 -2534.07 300)"><stop offset=".13" style="stop-color:#0065ff;stop-opacity:0"/><stop offset=".97" style="stop-color:#0065ff;stop-opacity:.5"/></linearGradient><path style="opacity:.5;fill:url(#SVGID_2_);enable-background:new" d="M393.3 298.3H700V605H393.3z"/><path style="fill:#00c7e5" d="m24.6 485.5 306.6-58.1 306.7 58.1-306.7 58.1z"/><linearGradient id="SVGID_3_" gradientUnits="userSpaceOnUse" x1="-5768.14" y1="301.835" x2="-5461.47" y2="301.835" gradientTransform="rotate(180 -2534.07 300)"><stop offset=".13" style="stop-color:#0065ff"/><stop offset=".79" style="stop-color:#2684ff"/></linearGradient><path style="fill:url(#SVGID_3_)" d="M393.3 298.2 700 240.1v116.2z"/><g style="opacity:.5"><linearGradient id="SVGID_4_" gradientUnits="userSpaceOnUse" x1="-5596.09" y1="278.1" x2="-5571.44" y2="138.268" gradientTransform="rotate(180 -2534.07 300)"><stop offset="0" style="stop-color:#0065ff"/><stop offset=".09" style="stop-color:#1379fd"/><stop offset=".27" style="stop-color:#379ef9"/><stop offset=".46" style="stop-color:#54bcf6"/><stop offset=".65" style="stop-color:#69d1f4"/><stop offset=".83" style="stop-color:#75def2"/><stop offset="1" style="stop-color:#79e2f2"/></linearGradient><path style="fill:url(#SVGID_4_)" d="M393.3 298.2 700 356.3l-62.1 129.2-306.7-58.1z"/></g><path style="fill:#ebecf0" d="m71.3 493.9 213 40.4 150.8-28.6-213-40.3z"/><linearGradient id="SVGID_5_" gradientUnits="userSpaceOnUse" x1="365.06" y1="113.65" x2="365.06" y2="470.61" gradientTransform="matrix(1 0 0 -1 0 600)"><stop offset=".48" style="stop-color:#0065ff;stop-opacity:.6"/><stop offset="1" style="stop-color:#b2d4ff;stop-opacity:0"/></linearGradient><path style="fill:url(#SVGID_5_)" d="M258.8 129.4V446l212.6 40.4V170z"/><linearGradient id="SVGID_6_" gradientUnits="userSpaceOnUse" x1="346.38" y1="103.75" x2="346.38" y2="460.71" gradientTransform="matrix(1 0 0 -1 0 600)"><stop offset=".48" style="stop-color:#0065ff;stop-opacity:.6"/><stop offset="1" style="stop-color:#b2d4ff;stop-opacity:0"/></linearGradient><path style="fill:url(#SVGID_6_)" d="M240.1 139.3v316.6l212.6 40.3V179.9z"/><path transform="rotate(-79.24 285.816 419.598)" class="st12" d="M284.4 378.4h2.8v82.4h-2.8z"/><path style="fill:#fafbfc" d="M435.1 247.5v258.2l-212.6-40.4V148.8l161.9 30.7 50.6 67.9z"/><linearGradient id="SVGID_7_" gradientUnits="userSpaceOnUse" x1="409.13" y1="904.607" x2="470.01" y2="965.487" gradientTransform="matrix(.99 .19 0 -1 -36.98 1074.73)"><stop offset="0" style="stop-color:#fafbfc"/><stop offset=".28" style="stop-color:#eff1f3"/><stop offset=".77" style="stop-color:#d1d6dd"/><stop offset="1" style="stop-color:#c1c7d0"/></linearGradient><path style="fill:url(#SVGID_7_)" d="m384.7 269 50.3-21.7-50.3-67.3z"/><path transform="rotate(-79.24 351.935 446.607)" class="st15" d="M349.8 381.9h4.3v129.3h-4.3z"/><path transform="rotate(-79.029 267.319 432.641)" class="st2" d="M263.6 411.4h7.5v42.5h-7.5z"/><path transform="rotate(-79.24 300.55 451.307)" class="st15" d="M298.4 396.3h4.3v109.9h-4.3z"/><path transform="rotate(-79.24 330.997 428.194)" class="st2" d="M327.3 342.2h7.5v171.9h-7.5z"/><path transform="rotate(-79.24 321.8 222.14)" class="st15" d="M319.6 145.6h4.3v153.1h-4.3z"/><path transform="rotate(-79.24 300.557 232.548)" class="st15" d="M298.4 177.6h4.3v109.9h-4.3z"/><path transform="rotate(-79.24 321.795 207.691)" class="st15" d="M319.6 131.1h4.3v153.1h-4.3z"/><path style="fill:#fff" d="m435.1 247.5-50.7-9.6v-58.4z"/><path style="fill:#dfe1e5" d="m415.4 421-170.1-32.3V245.2l170.1 32.3z"/><path style="fill:#253858" d="m346.4 308.6 50 74.6-100-19z"/><path class="st12" d="m296.1 323.7 31.8 46.5-63.5-12z"/><ellipse transform="rotate(-23.22 296.13 299.02)" cx="296.1" cy="299.1" rx="7.4" ry="9.3" style="fill:#ffab00"/><path class="st20" d="M378.9 403.5c-.7.5-1.2 1-1.7 1.7-.4.6-.7 1.2-.9 1.9-.2.6-.2 1.2 0 1.8.4.9 1.3 1.4 2.2 1.3.5 0 1-.3 1.3-.7.6-.8.2-1.6 1-2.4 1.1-1.5 2.6-.6 2.7-1.4s-.7-1.5-1.8-2.1c-.1-.1-2.1-.7-2.8-.1z"/><linearGradient id="SVGID_8_" gradientUnits="userSpaceOnUse" x1="174.345" y1="248.891" x2="290.22" y2="248.891" gradientTransform="matrix(1 0 0 -1 0 600)"><stop offset=".29" style="stop-color:#ff991f"/><stop offset="1" style="stop-color:#ffab00"/></linearGradient><path d="m282.2 430.8 1 1.4 7-4.7-1.3-1.9c-2.2-3.3-3.2-7.3-2.8-11.2v-.5c.4-4-.6-7.9-2.8-11.2L198 275.8c-4-5.9-12-7.5-18-3.5-5.9 4-7.5 12.1-3.5 18l85 126.4c2.4 3.6 6.1 6.1 10.4 7.1 4.2.9 7.9 3.4 10.3 7z" style="fill:url(#SVGID_8_)"/><path class="st22" d="M229.5 369c.1-7 .9-16.3 1.4-23.5.6-7.4 1-13.8 1.3-19.1l-6.6-9.9c.1 8.1-.9 20.1-1.5 28.4-.4 5.5-.8 10.2-1 14.4l6.4 9.7zM201 280.1c-1.4 37.7 1.9 46.4 7.7 47.6 5.2 1 8.8-5.1 12.6-11.6.5-.9 1.2-2 1.8-3l-4.2-6.2c-1.2 1.7-2.4 3.7-3.6 5.8-1.4 2.4-3.8 6.5-5.3 7.9-1-1.9-2.8-8.4-2.4-30.5l-6.6-10zM244.2 344.3c-5.9 15.1-9.9 23.5-12.4 28.1l4.2 6.3c3.1-4.8 7.1-13.2 12.8-27.5l-4.6-6.9z"/><path class="st23" d="m290.1 437 2.1-3.1c.3-.4.3-1 0-1.4l-3-4.4-5 3.4 3.8 5.5c.4.6 1.2.8 1.8.4.1-.1.2-.2.3-.4z"/><linearGradient id="SVGID_9_" gradientUnits="userSpaceOnUse" x1="441.752" y1="675.859" x2="470.022" y2="704.129" gradientTransform="matrix(.94 .37 .2 -.98 -171.54 918.89)"><stop offset="0" style="stop-color:#ff991f"/><stop offset="1" style="stop-color:#ffab00"/></linearGradient><path d="m409.1 399.8-20.3-8.1c-2-.9-4.3 0-5.2 1.9-.1.3-.2.6-.3 1l-4.4 21.1c-.5 2.7 1 5.4 3.5 6.5l5 2 2.6 7c.3 1 1.2 1.6 2.2 1.3.2 0 .4-.1.5-.2l4.9-4 5 2c2 .9 4.3 0 5.2-1.9.1-.3.2-.6.3-1l4.4-21.1c.5-2.7-.9-5.4-3.4-6.5z" style="fill:url(#SVGID_9_)"/><path class="st25" d="M218.3 345.6c.1.7 0 1.4-.3 2-.4 1-1.8 4.3-2.9 4.1-.5-.1-.7-1-.8-1.5-.1-.9 1-1.4 1.1-2.3 0-.2 0-.4.1-.6.1-.6.1-.9.3-.9s.5.5.9.5c.7 0 1-2.1 1.4-2.1.1.1.1.6.2.8z"/><path class="st25" d="M212.1 352.1c.9.8 3 .4 4.1-.9.6-.8.9-1.9.7-2.9-.1-1.1-.6-1.2-.9-2.3-.7-2.3.4-4.3-.2-4.6-.1-.1-.4 0-.9.4-.1-.1-.2-.2-.4-.2-.4 0-.6.6-.7.9-.7 1.8-1.2 3.5-1.6 5.4-.4 2.6-.6 3.8-.1 4.2z"/><path class="st25" d="M212.2 344.7c-.2.8-.3 1.6-.1 2.3 0 2.8-.4 4.6-.2 4.6s.3-.6.4-.9c.9-2.6 2.2-8 1.4-8.2-.3 0-1.1 1.1-1.5 2.2z"/><path id="_Clipping_Path_12" class="st26" d="m203.2 499.5-11.6-2.5 1.6-7.4 3.6 1.8c0 1.3.5 2.5 1.4 3.5 1.5 1.4 3.5 1 4.6 2.6.3.6.5 1.3.4 2z"/><path transform="rotate(-77.912 197.293 497.838)" class="st27" d="M196.9 491.7h.8V504h-.8z"/><path class="st28" d="m203.2 499.5-11.6-2.5 1.6-7.4 3.6 1.8c0 1.3.5 2.5 1.4 3.5 1.5 1.4 3.5 1 4.6 2.6.3.6.5 1.3.4 2z"/><path id="_Clipping_Path_13" class="st26" d="M253.3 498.6h-13.2v-8.4l4.3.2c.4 2.8 1.5 3.9 2.3 4.4 1.9 1.2 4 .2 5.6 1.7.5.6.8 1.3 1 2.1z"/><path class="st27" d="M239.8 497.7h13.7v.9h-13.7z"/><path class="st28" d="M253.3 498.6h-13.2v-8.4l4.3.2c.4 2.8 1.5 3.9 2.3 4.4 1.9 1.2 4 .2 5.6 1.7.5.6.8 1.3 1 2.1z"/><path d="M227.7 397.1c-1.2-.9-2.1-2.2-2.6-3.6-1.3-4 .8-8.3 4.9-9.7 2.3-.8 4.7-.4 6.7.9 1.3-.5 2.9.1 3.4 1.4.4 1 .2 2.1-.5 2.8 0 .3 0 .5-.1.8-.7 2.7-2.3 5-4.6 6.5l-7.2.9z" style="fill:#27375c"/><path class="st25" d="M232.5 404.3c-2.5.9-5.3.4-7.4-1.3 1.7-2 2.6-4.5 2.8-7.1l6.2 1.1-1.6 7.3z"/><path class="st25" d="M239.6 389c0 .9 0 1.8.1 2.8.1.6.2 1.1.2 1.2.2 1.1.5 2.1.9 3.1l-1.5.2-1.4 4.8c-2.1.4-4.2.5-6.3.1-1.8-.3-3.5-.7-4.3-2-.2-.5-.4-1-.5-1.5l-.3-.9c-.1-.4-.3-.9-.6-1.6.6.4 1.3.6 1.9.6.7.1 1.4 0 1.9-.4.8-.7.2-2 .9-2.3.3-.1.7-.1.9.1.8.6.4 2.5.4 2.5h1.4c.1-.9.4-1.7.9-2.4.8-1.1 1.4-1.1 2-2.2s.2-1.7.7-2.1 1.1-.6 2.7 0zM257 376.7c0 .6.1 1.3.4 1.9.5.9 2 3.9 3 3.6.5-.1.6-1 .6-1.4 0-.8-1-1.2-1.2-2.1 0-.2 0-.3-.1-.5-.1-.5-.2-.8-.3-.8s-.4.6-.8.6c-.6 0-1-1.9-1.4-1.8-.1-.1-.2.4-.2.5z"/><path class="st30" d="M213.2 422.9c-1.2 2.1-2.2 4.4-3.2 6.7-3.8 8.8-6.4 18.1-7.6 27.6-1.4 3.2-2.7 6.5-4 10.1-2.7 7.8-4.8 15.8-6.3 24l6.2 1.4 12-32.4 2.6-5.7c8.1-17.5 8.8-20.5 7.9-23.7-.5-1.8-2.1-5-7.6-8z"/><path class="st25" d="M263.8 382.5c-.8.9-3 .6-4.1-.6-.7-.8-1-1.8-.9-2.8.1-1.1.5-1.2.8-2.3.6-2.3-.7-4.3-.1-4.6.1-.1.4 0 .9.4.1-.1.2-.2.4-.2.4 0 .6.6.7.9.8 1.7 1.5 3.4 2 5.2.4 2.3.7 3.5.3 4z"/><path class="st30" d="M229 426.5c4.3 10.2 7.8 20.7 10.8 31.4 3 11.1 5.3 22.3 6.9 33.7h-7.2c-1-4.6-2.2-9.3-3.6-14.2-1.9-6.7-3.8-13-5.9-18.9-10.1-9.7-16.9-18-18.8-22.1-.8-1.6-2.1-4.3-1.2-7 .1-.4.5-1.2 1.3-2.8s1.4-2.9 1.9-3.8c5.1 1.9 10.5 3.1 15.9 3.4l-.1.3z"/><path d="M237.8 403.5c-5.3-.5-10.3-2.5-14.4-5.8-3.2-2.7-5.8-6.1-7.5-10-1.7-3.6-2.7-7.5-2.9-11.5.9-5 1.8-10.2 2.5-15.8.3-2.6.6-5.2.9-7.7l-5.4-2.9c-1.2 4.1-2.2 8.5-3.1 13.2-1.1 5.2-1.9 10.1-2.6 14.9.7 6.6 2.6 13 5.7 18.9 1.8 3.4 4 6.6 6.6 9.6-.7 2.5-1.6 5.1-2.7 7.9-1.3 3.3-2.7 6.6-4.3 9.8 5.2 5 12.6 7 19.6 5.5.9-2.2 1.8-4.6 2.6-7.1 1.1-3.2 1.9-6.5 2.6-9.8 2.8.3 5.7.2 8.5-.2 3-.5 8-1.3 12.2-5.1 3.5-3.1 4.6-6.6 6.1-10.8 1.7-4.8 2.5-9.9 2.3-15-.7-.3-1.4-.5-2.1-.4-1 0-1.9.4-2.7 1-1.2 6.9-3.8 13.5-7.6 19.4-4.4 1.9-9.4 2.7-14.3 1.9z" style="fill:#00b8d9"/><linearGradient id="SVGID_10_" gradientUnits="userSpaceOnUse" x1="483.5" y1="321.01" x2="629.5" y2="321.01" gradientTransform="matrix(1 0 0 -1 0 600)"><stop offset=".21" style="stop-color:#3dc7dc;stop-opacity:0"/><stop offset=".79" style="stop-color:#3dc7dc;stop-opacity:.8"/></linearGradient><ellipse cx="556.5" cy="279" rx="73" ry="7" style="fill:url(#SVGID_10_)"/><linearGradient id="SVGID_11_" gradientUnits="userSpaceOnUse" x1="544.4" y1="293.64" x2="627.78" y2="293.64" gradientTransform="matrix(1 0 0 -1 0 600)"><stop offset=".21" style="stop-color:#e5e8ec;stop-opacity:.3"/><stop offset=".79" style="stop-color:#6bd5e5;stop-opacity:.8"/></linearGradient><ellipse cx="586.1" cy="306.4" rx="41.7" ry="5.4" style="fill:url(#SVGID_11_)"/><path transform="rotate(-10.311 594.875 217.168)" class="st0" d="M562.8 215.4h64.3v3.5h-64.3z"/><path transform="rotate(-10.735 577.37 84.434)" class="st0" d="M534 82.6h86.9v3.5H534z"/><circle class="st34" cx="552" cy="128" r="62.4"/><circle class="st34" cx="552.2" cy="127.8" r="62.4"/><circle class="st34" cx="552.4" cy="127.7" r="62.4"/><circle class="st34" cx="552.5" cy="127.5" r="62.4"/><circle class="st34" cx="552.7" cy="127.3" r="62.4"/><circle class="st34" cx="552.9" cy="127.1" r="62.4"/><circle class="st34" cx="553.1" cy="126.9" r="62.4"/><circle class="st34" cx="553.3" cy="126.7" r="62.4"/><circle class="st34" cx="553.5" cy="126.5" r="62.4"/><circle class="st34" cx="553.7" cy="126.3" r="62.4"/><circle class="st34" cx="553.8" cy="126.2" r="62.4"/><circle class="st34" cx="554" cy="126" r="62.4"/><circle class="st34" cx="554.2" cy="125.8" r="62.4"/><circle class="st34" cx="554.4" cy="125.6" r="62.4"/><circle class="st34" cx="554.6" cy="125.4" r="62.4"/><circle class="st34" cx="554.8" cy="125.2" r="62.4"/><circle class="st34" cx="555" cy="125" r="62.4"/><circle class="st34" cx="555.2" cy="124.8" r="62.4"/><circle class="st34" cx="555.3" cy="124.7" r="62.4"/><circle class="st34" cx="555.5" cy="124.5" r="62.4"/><circle class="st34" cx="555.7" cy="124.3" r="62.4"/><path class="st23" d="m563.9 110.1-70.5 13.4v.8c0 9.2 2.1 18.3 6 26.6l69.8-13.2-5.3-27.6z"/><path class="st35" d="m559.3 62-29.7 5.6c-14.9 6.9-26.5 19.3-32.3 34.7L602 82.4c-11-12.1-26.3-19.5-42.7-20.4zM555.7 186.7c24.4 0 46.6-14.2 56.7-36.4l-100 18.9c11.7 11.2 27.2 17.5 43.3 17.5z"/><linearGradient id="SVGID_12_" gradientUnits="userSpaceOnUse" x1="-45.057" y1="465.564" x2="51.093" y2="561.714" gradientTransform="scale(1 -1) rotate(9.607 4135.118 3413.463)"><stop offset="0" style="stop-color:#0065ff"/><stop offset="1" style="stop-color:#0057d8"/></linearGradient><path d="M545 203.5c-37.6.1-68.1-30.4-68.2-68s30.4-68.1 68-68.2 68.1 30.4 68.2 68c.1 33.2-23.8 61.6-56.5 67.2-3.8.7-7.6 1-11.5 1zm.2-124.8c-3.2 0-6.4.3-9.5.8-30.9 5.2-51.7 34.6-46.5 65.5 5.2 30.9 34.6 51.7 65.5 46.5 30.9-5.2 51.7-34.6 46.5-65.5-4.7-27.3-28.3-47.3-56-47.3z" style="fill:url(#SVGID_12_)"/><linearGradient id="SVGID_13_" gradientUnits="userSpaceOnUse" x1="-44.854" y1="465.731" x2="51.316" y2="561.901" gradientTransform="scale(1 -1) rotate(9.607 4135.118 3413.463)"><stop offset="0" style="stop-color:#0065ff"/><stop offset="1" style="stop-color:#0057d8"/></linearGradient><path d="M545.2 203.3c-37.6.1-68.2-30.4-68.3-68s30.4-68.2 68-68.3c37.6-.1 68.2 30.4 68.3 68 .1 33.2-23.8 61.6-56.5 67.3-3.8.7-7.6 1-11.5 1zm.3-124.8c-31.4-.1-56.9 25.3-56.9 56.7-.1 31.4 25.3 56.9 56.7 56.9s56.9-25.3 56.9-56.7c0-18.4-8.9-35.8-23.9-46.4-9.6-6.8-21.1-10.5-32.8-10.5z" style="fill:url(#SVGID_13_)"/><linearGradient id="SVGID_14_" gradientUnits="userSpaceOnUse" x1="-44.432" y1="465.653" x2="51.739" y2="561.824" gradientTransform="scale(1 -1) rotate(9.607 4135.118 3413.463)"><stop offset="0" style="stop-color:#0065ff"/><stop offset="1" style="stop-color:#0057d8"/></linearGradient><path d="M545.4 203.1c-37.6-.1-67.9-30.6-67.8-68.2.1-37.6 30.6-67.9 68.2-67.8 33.1.1 61.3 24 66.9 56.6 6.2 37-18.7 72.1-55.7 78.4-3.9.7-7.7 1-11.6 1zm.2-124.8c-3.2 0-6.4.3-9.5.8-30.9 5.2-51.7 34.6-46.5 65.5 5.2 30.9 34.6 51.7 65.5 46.5 30.9-5.2 51.7-34.6 46.5-65.5-4.7-27.2-28.3-47.2-56-47.3z" style="fill:url(#SVGID_14_)"/><linearGradient id="SVGID_15_" gradientUnits="userSpaceOnUse" x1="-44.369" y1="465.986" x2="51.801" y2="562.156" gradientTransform="scale(1 -1) rotate(9.607 4135.118 3413.463)"><stop offset="0" style="stop-color:#0065ff"/><stop offset="1" style="stop-color:#0057d8"/></linearGradient><path d="M545.6 203c-37.6.1-68.1-30.4-68.2-68s30.4-68.1 68-68.2 68.1 30.4 68.2 68c.1 33.2-23.8 61.6-56.5 67.2-3.8.7-7.6 1-11.5 1zm.2-124.8c-3.2 0-6.4.3-9.5.8-30.9 5.2-51.7 34.6-46.5 65.5 5.2 30.9 34.6 51.7 65.5 46.5 30.9-5.2 51.7-34.6 46.5-65.5-4.7-27.3-28.3-47.3-56-47.3z" style="fill:url(#SVGID_15_)"/><linearGradient id="SVGID_16_" gradientUnits="userSpaceOnUse" x1="-44.21" y1="466.187" x2="51.96" y2="562.357" gradientTransform="scale(1 -1) rotate(9.607 4135.118 3413.463)"><stop offset="0" style="stop-color:#0065ff"/><stop offset="1" style="stop-color:#0057d8"/></linearGradient><path d="M545.8 202.8c-37.6.1-68.2-30.4-68.3-68s30.4-68.2 68-68.3c37.6-.1 68.2 30.4 68.3 68 .1 33.2-23.8 61.6-56.5 67.3-3.8.6-7.7 1-11.5 1zm.2-124.9c-31.4-.1-56.9 25.3-57 56.7-.1 31.4 25.3 56.9 56.7 57 31.4.1 56.9-25.3 57-56.7 0-3.2-.3-6.4-.8-9.6C597.3 98 573.7 78 546 77.9z" style="fill:url(#SVGID_16_)"/><linearGradient id="SVGID_17_" gradientUnits="userSpaceOnUse" x1="-43.751" y1="466.112" x2="52.415" y2="562.288" gradientTransform="scale(1 -1) rotate(9.607 4135.118 3413.463)"><stop offset="0" style="stop-color:#0065ff"/><stop offset="1" style="stop-color:#0057d8"/></linearGradient><path d="M546 202.6c-37.6-.1-67.9-30.6-67.8-68.2.1-37.6 30.6-67.9 68.2-67.8 33.1.1 61.3 24 66.9 56.6 6.2 37-18.7 72.1-55.7 78.4-3.9.7-7.7 1-11.6 1zm.2-124.8c-31.4 0-56.8 25.4-56.8 56.8s25.4 56.8 56.8 56.8S603 166 603 134.6c0-3.2-.3-6.3-.8-9.5-4.7-27.3-28.3-47.3-56-47.3z" style="fill:url(#SVGID_17_)"/><linearGradient id="SVGID_18_" gradientUnits="userSpaceOnUse" x1="-43.566" y1="466.262" x2="52.61" y2="562.428" gradientTransform="scale(1 -1) rotate(9.607 4135.118 3413.463)"><stop offset="0" style="stop-color:#0065ff"/><stop offset="1" style="stop-color:#0057d8"/></linearGradient><path d="M546.2 202.4c-37.6-.1-67.9-30.6-67.8-68.2.1-37.6 30.6-67.9 68.2-67.8 33.1.1 61.3 24 66.9 56.6 6.3 37-18.7 72.1-55.7 78.4-3.9.7-7.8 1-11.6 1zm.1-124.8c-3.2 0-6.4.3-9.5.8-30.9 5.2-51.7 34.6-46.5 65.5 5.2 30.9 34.6 51.7 65.5 46.5 30.9-5.2 51.7-34.6 46.5-65.5-4.7-27.3-28.3-47.3-56-47.3z" style="fill:url(#SVGID_18_)"/><linearGradient id="SVGID_19_" gradientUnits="userSpaceOnUse" x1="-43.562" y1="466.649" x2="52.608" y2="562.819" gradientTransform="scale(1 -1) rotate(9.607 4135.118 3413.463)"><stop offset="0" style="stop-color:#0065ff"/><stop offset="1" style="stop-color:#0057d8"/></linearGradient><path d="M546.3 202.2c-37.6.1-68.2-30.4-68.3-68s30.4-68.2 68-68.3c37.6-.1 68.2 30.4 68.3 68 .1 33.2-23.8 61.6-56.5 67.3-3.7.7-7.6 1-11.5 1zm.3-124.8c-31.4-.1-56.9 25.3-56.9 56.7-.1 31.4 25.3 56.9 56.7 56.9 31.4.1 56.9-25.3 56.9-56.7 0-3.2-.3-6.4-.8-9.6-4.6-27.3-28.2-47.2-55.9-47.3z" style="fill:url(#SVGID_19_)"/><linearGradient id="SVGID_20_" gradientUnits="userSpaceOnUse" x1="-43.137" y1="466.6" x2="53.039" y2="562.766" gradientTransform="scale(1 -1) rotate(9.607 4135.118 3413.463)"><stop offset="0" style="stop-color:#0065ff"/><stop offset="1" style="stop-color:#0057d8"/></linearGradient><path d="M546.5 202c-37.6-.1-67.9-30.6-67.8-68.2.1-37.6 30.6-67.9 68.2-67.8 33.1.1 61.3 24 66.9 56.6 6.2 37-18.7 72.1-55.7 78.4-3.9.7-7.7 1-11.6 1zm.2-124.8c-31.4 0-56.8 25.4-56.8 56.8s25.4 56.8 56.8 56.8 56.8-25.4 56.8-56.8c0-3.2-.3-6.3-.8-9.5-4.7-27.3-28.3-47.3-56-47.3z" style="fill:url(#SVGID_20_)"/><linearGradient id="SVGID_21_" gradientUnits="userSpaceOnUse" x1="-42.94" y1="466.736" x2="53.231" y2="562.907" gradientTransform="scale(1 -1) rotate(9.607 4135.118 3413.463)"><stop offset="0" style="stop-color:#0065ff"/><stop offset="1" style="stop-color:#0057d8"/></linearGradient><path d="M546.7 201.8c-37.6-.1-67.9-30.6-67.9-68.1s30.6-67.9 68.1-67.9c33.1.1 61.4 24 66.9 56.6 6.2 37.1-18.8 72.2-56 78.4-3.6.7-7.3 1-11.1 1zm.2-124.8c-3.2 0-6.4.3-9.5.8-30.9 5.2-51.7 34.6-46.5 65.5 5.2 30.9 34.6 51.7 65.5 46.5 30.9-5.2 51.7-34.6 46.5-65.5-4.7-27.3-28.3-47.2-56-47.3z" style="fill:url(#SVGID_21_)"/><linearGradient id="SVGID_22_" gradientUnits="userSpaceOnUse" x1="-42.913" y1="467.11" x2="53.257" y2="563.28" gradientTransform="scale(1 -1) rotate(9.607 4135.118 3413.463)"><stop offset="0" style="stop-color:#0065ff"/><stop offset="1" style="stop-color:#0057d8"/></linearGradient><path d="M546.9 201.6c-37.6.1-68.2-30.4-68.3-68s30.4-68.2 68-68.3c37.6-.1 68.2 30.4 68.3 68 .1 33.2-23.8 61.6-56.5 67.3-3.8.7-7.6 1-11.5 1zm.3-124.8c-31.4-.1-56.9 25.3-56.9 56.7-.1 31.4 25.3 56.9 56.7 56.9 31.4.1 56.9-25.3 56.9-56.7 0-3.2-.3-6.4-.8-9.6-4.7-27.2-28.3-47.2-55.9-47.3z" style="fill:url(#SVGID_22_)"/><linearGradient id="SVGID_23_" gradientUnits="userSpaceOnUse" x1="-42.476" y1="467.031" x2="53.695" y2="563.202" gradientTransform="scale(1 -1) rotate(9.607 4135.118 3413.463)"><stop offset="0" style="stop-color:#0065ff"/><stop offset="1" style="stop-color:#0057d8"/></linearGradient><path d="M547.2 201.4c-37.6 0-68-30.5-68-68s30.5-68 68-68c33.2 0 61.5 24 67 56.6 6.3 37-18.7 72.1-55.7 78.4-3.7.7-7.5 1.1-11.3 1zm.1-124.8c-31.4 0-56.8 25.4-56.8 56.8s25.4 56.8 56.8 56.8 56.8-25.4 56.8-56.8c0-3.2-.3-6.3-.8-9.5-4.7-27.2-28.3-47.2-56-47.3z" style="fill:url(#SVGID_23_)"/><linearGradient id="SVGID_24_" gradientUnits="userSpaceOnUse" x1="-42.273" y1="467.174" x2="53.898" y2="563.345" gradientTransform="scale(1 -1) rotate(9.607 4135.118 3413.463)"><stop offset="0" style="stop-color:#0065ff"/><stop offset="1" style="stop-color:#0057d8"/></linearGradient><path d="M547.3 201.3c-37.6-.1-67.9-30.6-67.9-68.1s30.6-67.9 68.1-67.9c33.1.1 61.4 24 66.9 56.6 6.3 37-18.7 72.1-55.7 78.4-3.7.6-7.6 1-11.4 1zm.2-124.8c-3.2 0-6.4.3-9.5.8-30.9 5.2-51.7 34.6-46.5 65.5 5.2 30.9 34.6 51.7 65.5 46.5 30.9-5.2 51.7-34.6 46.5-65.5-4.7-27.3-28.4-47.3-56-47.3z" style="fill:url(#SVGID_24_)"/><linearGradient id="SVGID_25_" gradientUnits="userSpaceOnUse" x1="-42.27" y1="467.567" x2="53.9" y2="563.737" gradientTransform="scale(1 -1) rotate(9.607 4135.118 3413.463)"><stop offset="0" style="stop-color:#0065ff"/><stop offset="1" style="stop-color:#0057d8"/></linearGradient><path d="M547.5 201.1c-37.6.1-68.2-30.4-68.3-68s30.4-68.2 68-68.3c37.6-.1 68.2 30.4 68.3 68 .1 33.2-23.8 61.6-56.5 67.3-3.8.6-7.7 1-11.5 1zm.2-124.8c-3.2 0-6.4.3-9.6.8-30.9 5.2-51.7 34.6-46.5 65.5 5.2 30.9 34.6 51.7 65.5 46.5 30.9-5.2 51.7-34.5 46.5-65.5-4.6-27.3-28.2-47.3-55.9-47.3z" style="fill:url(#SVGID_25_)"/><linearGradient id="SVGID_26_" gradientUnits="userSpaceOnUse" x1="-41.998" y1="467.705" x2="54.132" y2="563.835" gradientTransform="scale(1 -1) rotate(9.607 4135.118 3413.463)"><stop offset="0" style="stop-color:#0065ff"/><stop offset="1" style="stop-color:#0057d8"/></linearGradient><path d="M547.8 200.9c-37.6.1-68.2-30.2-68.3-67.8-.1-37.6 30.2-68.2 67.8-68.3 37.6-.1 68.2 30.2 68.3 67.8.1 33.2-23.7 61.6-56.4 67.3-3.8.6-7.6 1-11.4 1zm0-124.8c-31.4 0-56.8 25.4-56.8 56.8s25.4 56.8 56.8 56.8 56.8-25.4 56.8-56.8c0-3.2-.3-6.4-.8-9.5-4.7-27.3-28.3-47.2-56-47.3z" style="fill:url(#SVGID_26_)"/><linearGradient id="SVGID_27_" gradientUnits="userSpaceOnUse" x1="-41.914" y1="467.941" x2="54.256" y2="564.121" gradientTransform="scale(1 -1) rotate(9.607 4135.118 3413.463)"><stop offset="0" style="stop-color:#0065ff"/><stop offset="1" style="stop-color:#0057d8"/></linearGradient><path d="M547.8 200.7c-37.7.1-68.4-30.4-68.5-68.2s30.4-68.4 68.2-68.5c37.7-.1 68.4 30.4 68.5 68.2.1 33.3-23.9 61.8-56.7 67.5-3.8.7-7.6 1-11.5 1zm.3-124.8c-3.2 0-6.4.3-9.6.8-30.8 5.3-51.5 34.5-46.2 65.3s34.5 51.5 65.3 46.2 51.5-34.5 46.2-65.3c-4.7-27.1-28.2-47-55.7-47z" style="fill:url(#SVGID_27_)"/><linearGradient id="SVGID_28_" gradientUnits="userSpaceOnUse" x1="-41.417" y1="467.807" x2="54.754" y2="563.978" gradientTransform="scale(1 -1) rotate(9.607 4135.118 3413.463)"><stop offset="0" style="stop-color:#0065ff"/><stop offset="1" style="stop-color:#0057d8"/></linearGradient><path d="M548.1 200.5c-37.6 0-68-30.5-68-68 0-37.6 30.5-68 68-68 33.2 0 61.5 23.9 67 56.6 6.2 37-18.7 72.1-55.7 78.4-3.6.7-7.4 1-11.3 1zm.1-124.8c-3.2 0-6.4.3-9.5.8-30.9 5.2-51.7 34.6-46.5 65.5s34.6 51.7 65.5 46.5c30.9-5.2 51.7-34.6 46.5-65.5-4.7-27.3-28.3-47.2-56-47.3z" style="fill:url(#SVGID_28_)"/><linearGradient id="SVGID_29_" gradientUnits="userSpaceOnUse" x1="-41.41" y1="468.176" x2="54.74" y2="564.327" gradientTransform="scale(1 -1) rotate(9.607 4135.118 3413.463)"><stop offset="0" style="stop-color:#0065ff"/><stop offset="1" style="stop-color:#0057d8"/></linearGradient><path d="M548.2 200.3c-37.6.1-68.2-30.4-68.3-68s30.4-68.2 68-68.3c37.6-.1 68.2 30.4 68.3 68 .1 33.2-23.8 61.6-56.5 67.3-3.8.7-7.6 1-11.5 1zm.2-124.8c-31.4 0-56.8 25.5-56.8 56.9 0 3.1.3 6.3.8 9.3 5.2 30.9 34.6 51.7 65.5 46.5 30.9-5.2 51.7-34.6 46.5-65.5-4.7-27.2-28.3-47.2-56-47.2z" style="fill:url(#SVGID_29_)"/><linearGradient id="SVGID_30_" gradientUnits="userSpaceOnUse" x1="-41.215" y1="468.351" x2="54.955" y2="564.531" gradientTransform="scale(1 -1) rotate(9.607 4135.118 3413.463)"><stop offset="0" style="stop-color:#0065ff"/><stop offset="1" style="stop-color:#0057d8"/></linearGradient><path d="M548.4 200.1c-37.7.1-68.3-30.4-68.3-68.1s30.4-68.3 68.1-68.3c37.7-.1 68.3 30.4 68.3 68.1.1 33.2-23.8 61.7-56.6 67.3-3.8.7-7.6 1-11.5 1zm.3-124.8c-3.2 0-6.4.3-9.6.8-30.8 5.3-51.5 34.5-46.2 65.3 5.3 30.8 34.5 51.5 65.3 46.2s51.5-34.5 46.2-65.3c-4.7-27.1-28.2-46.9-55.7-47z" style="fill:url(#SVGID_30_)"/><linearGradient id="SVGID_31_" gradientUnits="userSpaceOnUse" x1="-40.79" y1="468.238" x2="55.386" y2="564.404" gradientTransform="scale(1 -1) rotate(9.607 4135.118 3413.463)"><stop offset="0" style="stop-color:#0065ff"/><stop offset="1" style="stop-color:#0057d8"/></linearGradient><path d="M548.7 200c-37.6 0-68-30.5-68-68 0-37.6 30.5-68 68-68 33.2 0 61.5 23.9 67 56.6 6.2 37-18.7 72.1-55.7 78.4-3.7.6-7.5 1-11.3 1zm.2-124.8c-3.2 0-6.4.3-9.6.8-30.8 5.3-51.5 34.5-46.2 65.3s34.5 51.5 65.3 46.2 51.5-34.5 46.2-65.3c-4.7-27.1-28.2-47-55.7-47z" style="fill:url(#SVGID_31_)"/><linearGradient id="SVGID_32_" gradientUnits="userSpaceOnUse" x1="-40.668" y1="468.585" x2="55.506" y2="564.759" gradientTransform="scale(1 -1) rotate(9.607 4135.118 3413.463)"><stop offset="0" style="stop-color:#0065ff"/><stop offset="1" style="stop-color:#0057d8"/></linearGradient><path d="M548.9 199.8c-37.6.1-68.1-30.2-68.2-67.8s30.2-68.1 67.8-68.2 68.1 30.2 68.2 67.8c.1 33.2-23.7 61.6-56.4 67.2-3.8.6-7.6 1-11.4 1zM549 75c-18.4 0-35.7 8.9-46.3 23.9-18.2 25.6-12.1 61 13.4 79.2 25.6 18.2 61 12.1 79.2-13.4 18.2-25.6 12.1-61-13.4-79.2C572.2 78.7 560.8 75 549 75z" style="fill:url(#SVGID_32_)"/><linearGradient id="SVGID_33_" gradientUnits="userSpaceOnUse" x1="-40.536" y1="468.783" x2="55.634" y2="564.953" gradientTransform="scale(1 -1) rotate(9.607 4135.118 3413.463)"><stop offset="0" style="stop-color:#0065ff"/><stop offset="1" style="stop-color:#0057d8"/></linearGradient><path d="M549 199.6c-37.7.1-68.3-30.4-68.3-68.1-.1-37.7 30.4-68.3 68.1-68.3s68.3 30.4 68.3 68.1c.1 33.2-23.8 61.7-56.6 67.3-3.8.6-7.6 1-11.5 1zm.3-124.8c-3.2 0-6.4.3-9.6.8-30.9 5.2-51.7 34.6-46.5 65.5 5.2 30.9 34.6 51.7 65.5 46.5 30.9-5.2 51.7-34.6 46.5-65.5-4.7-27.3-28.3-47.3-55.9-47.3z" style="fill:url(#SVGID_33_)"/><linearGradient id="SVGID_34_" gradientUnits="userSpaceOnUse" x1="-40.128" y1="468.731" x2="56.043" y2="564.902" gradientTransform="scale(1 -1) rotate(9.607 4135.118 3413.463)"><stop offset="0" style="stop-color:#0065ff"/><stop offset="1" style="stop-color:#0057d8"/></linearGradient><path d="M549.3 199.4c-37.6 0-68-30.5-68-68 0-37.6 30.5-68 68-68 33.1 0 61.4 23.9 67 56.6 6.2 37-18.7 72.1-55.7 78.4-3.7.7-7.5 1-11.3 1zm0-124.8c-31.4 0-56.8 25.4-56.8 56.8s25.4 56.8 56.8 56.8 56.8-25.4 56.8-56.8c0-3.2-.3-6.3-.8-9.5-4.7-27.3-28.3-47.2-56-47.3z" style="fill:url(#SVGID_34_)"/><linearGradient id="SVGID_35_" gradientUnits="userSpaceOnUse" x1="-39.896" y1="468.859" x2="56.275" y2="565.03" gradientTransform="scale(1 -1) rotate(9.607 4135.118 3413.463)"><stop offset="0" style="stop-color:#0065ff"/><stop offset="1" style="stop-color:#0057d8"/></linearGradient><path d="M549.3 199.2c-37.6-.1-67.9-30.6-67.9-68.1s30.6-67.9 68.1-67.9c33.1.1 61.4 24 66.9 56.6 6.3 37-18.7 72.1-55.7 78.4-3.7.7-7.5 1-11.4 1zm.2-124.8c-31.4 0-56.8 25.4-56.8 56.8s25.4 56.8 56.8 56.8 56.8-25.4 56.8-56.8c0-3.2-.3-6.4-.8-9.5-4.7-27.3-28.3-47.3-56-47.3z" style="fill:url(#SVGID_35_)"/><linearGradient id="SVGID_36_" gradientUnits="userSpaceOnUse" x1="-39.928" y1="469.275" x2="56.242" y2="565.445" gradientTransform="scale(1 -1) rotate(9.607 4135.118 3413.463)"><stop offset="0" style="stop-color:#0065ff"/><stop offset="1" style="stop-color:#0057d8"/></linearGradient><path d="M549.5 199c-37.7.1-68.3-30.4-68.3-68.1-.1-37.7 30.4-68.3 68.1-68.3s68.3 30.4 68.3 68.1c.1 33.2-23.8 61.7-56.6 67.3-3.8.7-7.6 1-11.5 1zm.3-124.8c-3.2 0-6.4.3-9.6.8-30.9 5.2-51.7 34.6-46.5 65.5 5.2 30.9 34.6 51.7 65.5 46.5 30.9-5.2 51.7-34.6 46.5-65.5-4.7-27.3-28.2-47.3-55.9-47.3z" style="fill:url(#SVGID_36_)"/><linearGradient id="SVGID_37_" gradientUnits="userSpaceOnUse" x1="-39.482" y1="469.185" x2="56.694" y2="565.351" gradientTransform="scale(1 -1) rotate(9.607 4135.118 3413.463)"><stop offset="0" style="stop-color:#0065ff"/><stop offset="1" style="stop-color:#0057d8"/></linearGradient><path d="M549.8 198.8c-37.6 0-68-30.5-68-68 0-37.6 30.5-68 68-68 33.2 0 61.5 23.9 67 56.6 6.2 37-18.7 72.1-55.7 78.4-3.7.7-7.5 1-11.3 1zm.1-124.8c-31.4 0-56.8 25.4-56.8 56.8s25.4 56.8 56.8 56.8 56.8-25.4 56.8-56.8c0-3.2-.3-6.3-.8-9.5-4.7-27.3-28.3-47.2-56-47.3z" style="fill:url(#SVGID_37_)"/><linearGradient id="SVGID_38_" gradientUnits="userSpaceOnUse" x1="-39.25" y1="469.318" x2="56.921" y2="565.489" gradientTransform="scale(1 -1) rotate(9.607 4135.118 3413.463)"><stop offset="0" style="stop-color:#0065ff"/><stop offset="1" style="stop-color:#0057d8"/></linearGradient><path d="M549.9 198.7c-37.6-.1-67.9-30.6-67.9-68.1s30.6-67.9 68.1-67.9c33.1.1 61.4 24 66.9 56.6 6.3 37-18.7 72.1-55.7 78.4-3.7.6-7.5 1-11.4 1zm.2-124.9c-31.4 0-56.8 25.4-56.8 56.8s25.4 56.8 56.8 56.8 56.8-25.4 56.8-56.8c0-3.2-.3-6.4-.8-9.5-4.7-27.2-28.3-47.2-56-47.3z" style="fill:url(#SVGID_38_)"/><linearGradient id="SVGID_39_" gradientUnits="userSpaceOnUse" x1="-39.267" y1="469.724" x2="56.903" y2="565.894" gradientTransform="scale(1 -1) rotate(9.607 4135.118 3413.463)"><stop offset="0" style="stop-color:#0065ff"/><stop offset="1" style="stop-color:#0057d8"/></linearGradient><path d="M550.1 198.5c-37.7.1-68.3-30.4-68.3-68.1-.1-37.7 30.4-68.3 68.1-68.3s68.3 30.4 68.3 68.1c.1 33.2-23.8 61.7-56.6 67.3-3.8.6-7.7 1-11.5 1zm.3-124.8c-3.2 0-6.4.3-9.6.8-30.9 5.2-51.8 34.5-46.5 65.5s34.5 51.8 65.5 46.5c30.9-5.2 51.7-34.5 46.5-65.4-4.7-27.4-28.3-47.4-55.9-47.4z" style="fill:url(#SVGID_39_)"/><linearGradient id="SVGID_40_" gradientUnits="userSpaceOnUse" x1="-38.939" y1="469.816" x2="57.235" y2="565.99" gradientTransform="scale(1 -1) rotate(9.607 4135.118 3413.463)"><stop offset="0" style="stop-color:#0065ff"/><stop offset="1" style="stop-color:#0057d8"/></linearGradient><path d="M550.4 198.3c-37.6.1-68.1-30.2-68.2-67.8s30.2-68.1 67.8-68.2c37.6-.1 68.1 30.2 68.2 67.8.1 33.2-23.7 61.6-56.4 67.2-3.8.6-7.6 1-11.4 1zm0-124.8c-31.4 0-56.8 25.4-56.8 56.8s25.4 56.8 56.8 56.8 56.8-25.4 56.8-56.8c0-3.2-.3-6.3-.8-9.5-4.7-27.3-28.3-47.2-56-47.3z" style="fill:url(#SVGID_40_)"/><linearGradient id="SVGID_41_" gradientUnits="userSpaceOnUse" x1="-38.821" y1="470.018" x2="57.349" y2="566.188" gradientTransform="scale(1 -1) rotate(9.607 4135.118 3413.463)"><stop offset="0" style="stop-color:#0065ff"/><stop offset="1" style="stop-color:#0057d8"/></linearGradient><path d="M550.5 198.1c-37.6.1-68.2-30.4-68.3-68s30.4-68.2 68-68.3 68.2 30.4 68.3 68c.1 33.2-23.8 61.6-56.5 67.3-3.8.7-7.7 1-11.5 1zm.2-124.8c-3.2 0-6.4.3-9.6.8-30.8 5.3-51.5 34.5-46.2 65.3 5.3 30.8 34.5 51.5 65.3 46.2 30.8-5.3 51.5-34.5 46.2-65.3-4.7-27.2-28.2-47-55.7-47z" style="fill:url(#SVGID_41_)"/><linearGradient id="SVGID_42_" gradientUnits="userSpaceOnUse" x1="-38.534" y1="470.14" x2="57.711" y2="566.385" gradientTransform="scale(1 -1) rotate(9.607 4135.118 3413.463)"><stop offset="0" style="stop-color:#0065ff"/><stop offset="1" style="stop-color:#0057d8"/></linearGradient><path d="M550.8 197.9c-37.6.1-68.2-30.2-68.3-67.8-.1-37.6 30.2-68.2 67.8-68.3s68.2 30.2 68.3 67.8c.1 33.2-23.7 61.6-56.4 67.3-3.8.7-7.6 1-11.4 1zm.1-124.8c-3.2 0-6.4.3-9.6.8-30.9 5.2-51.8 34.5-46.5 65.5 5.2 30.9 34.5 51.8 65.5 46.5 30.9-5.2 51.8-34.5 46.5-65.5-4.6-27.3-28.2-47.2-55.9-47.3z" style="fill:url(#SVGID_42_)"/><linearGradient id="SVGID_43_" gradientUnits="userSpaceOnUse" x1="-38.34" y1="470.317" x2="57.79" y2="566.437" gradientTransform="scale(1 -1) rotate(9.607 4135.118 3413.463)"><stop offset="0" style="stop-color:#0065ff"/><stop offset="1" style="stop-color:#0057d8"/></linearGradient><path d="M550.9 197.7c-37.6.1-68.2-30.2-68.3-67.9s30.2-68.2 67.9-68.3c37.6-.1 68.2 30.2 68.3 67.9.1 33.2-23.7 61.7-56.5 67.3-3.7.7-7.5 1-11.4 1zm.1-124.8c-31.4 0-56.8 25.4-56.8 56.8s25.4 56.8 56.8 56.8 56.8-25.4 56.8-56.8c0-3.2-.3-6.3-.8-9.5-4.8-27.2-28.3-47.2-56-47.3z" style="fill:url(#SVGID_43_)"/><linearGradient id="SVGID_44_" gradientUnits="userSpaceOnUse" x1="-38.184" y1="470.491" x2="57.986" y2="566.661" gradientTransform="scale(1 -1) rotate(9.607 4135.118 3413.463)"><stop offset="0" style="stop-color:#0065ff"/><stop offset="1" style="stop-color:#0057d8"/></linearGradient><path d="M551 197.5c-37.6.1-68.2-30.4-68.3-68s30.4-68.2 68-68.3 68.2 30.4 68.3 68c.1 33.2-23.8 61.6-56.5 67.3-3.8.7-7.6 1-11.5 1zm.3-124.8c-3.2 0-6.4.3-9.6.8-30.8 5.3-51.5 34.5-46.2 65.3 5.3 30.8 34.5 51.5 65.3 46.2 30.8-5.3 51.5-34.5 46.2-65.3-4.7-27.1-28.2-47-55.7-47z" style="fill:url(#SVGID_44_)"/><linearGradient id="SVGID_45_" gradientUnits="userSpaceOnUse" x1="-37.752" y1="470.398" x2="58.419" y2="566.569" gradientTransform="scale(1 -1) rotate(9.607 4135.118 3413.463)"><stop offset="0" style="stop-color:#0065ff"/><stop offset="1" style="stop-color:#0057d8"/></linearGradient><path d="M551.2 197.4c-37.6-.1-67.9-30.6-67.8-68.2.1-37.6 30.6-67.9 68.2-67.8 33.1.1 61.4 24 66.9 56.6 6.2 37-18.7 72.1-55.7 78.4-3.9.6-7.7 1-11.6 1zm.2-124.9c-18.4 0-35.7 8.9-46.3 23.9-18.2 25.6-12.2 61 13.4 79.2 25.6 18.2 61 12.2 79.2-13.4 8.7-12.3 12.2-27.5 9.7-42.4-4.7-27.2-28.3-47.2-56-47.3z" style="fill:url(#SVGID_45_)"/><linearGradient id="SVGID_46_" gradientUnits="userSpaceOnUse" x1="-37.734" y1="470.771" x2="58.436" y2="566.951" gradientTransform="scale(1 -1) rotate(9.607 4135.118 3413.463)"><stop offset="0" style="stop-color:#0065ff"/><stop offset="1" style="stop-color:#0057d8"/></linearGradient><path d="M551.4 197.2c-37.6.1-68.2-30.4-68.3-68s30.4-68.2 68-68.3c37.6-.1 68.2 30.4 68.3 68 .1 33.2-23.8 61.6-56.5 67.3-3.8.6-7.7 1-11.5 1zm.2-124.9c-3.2 0-6.4.3-9.5.8-30.9 5.2-51.7 34.6-46.5 65.5 5.2 30.9 34.6 51.7 65.5 46.5s51.7-34.6 46.5-65.5c-4.7-27.3-28.3-47.2-56-47.3z" style="fill:url(#SVGID_46_)"/><linearGradient id="SVGID_47_" gradientUnits="userSpaceOnUse" x1="-37.521" y1="470.927" x2="58.649" y2="567.097" gradientTransform="scale(1 -1) rotate(9.607 4135.118 3413.463)"><stop offset="0" style="stop-color:#0065ff"/><stop offset="1" style="stop-color:#0057d8"/></linearGradient><path d="M551.6 197c-37.6.1-68.2-30.4-68.3-68s30.4-68.2 68-68.3 68.2 30.4 68.3 68c.1 33.2-23.8 61.6-56.5 67.3-3.8.7-7.7 1-11.5 1zm.2-124.8c-3.2 0-6.4.3-9.6.8-30.9 5.2-51.7 34.6-46.5 65.5 5.2 30.9 34.6 51.7 65.5 46.5 30.9-5.2 51.7-34.6 46.5-65.5-4.6-27.3-28.2-47.3-55.9-47.3z" style="fill:url(#SVGID_47_)"/><linearGradient id="SVGID_48_" gradientUnits="userSpaceOnUse" x1="-37.069" y1="470.857" x2="59.102" y2="567.028" gradientTransform="scale(1 -1) rotate(9.607 4135.118 3413.463)"><stop offset="0" style="stop-color:#0065ff"/><stop offset="1" style="stop-color:#0057d8"/></linearGradient><path d="M551.8 196.8c-37.6-.1-67.9-30.6-67.8-68.2.1-37.6 30.6-67.9 68.2-67.8 33.1.1 61.3 24 66.9 56.6 6.2 37-18.7 72.1-55.7 78.4-3.9.7-7.8 1-11.6 1zm.1-124.8c-18.4 0-35.7 8.9-46.3 23.9-18.2 25.6-12.2 61 13.4 79.2 25.6 18.2 61 12.2 79.2-13.4 8.7-12.3 12.2-27.5 9.7-42.4-4.7-27.3-28.3-47.2-56-47.3z" style="fill:url(#SVGID_48_)"/><linearGradient id="SVGID_49_" gradientUnits="userSpaceOnUse" x1="-37.096" y1="471.233" x2="59.074" y2="567.403" gradientTransform="scale(1 -1) rotate(9.607 4135.118 3413.463)"><stop offset="0" style="stop-color:#0065ff"/><stop offset="1" style="stop-color:#0057d8"/></linearGradient><path d="M552 196.6c-37.7.1-68.3-30.4-68.3-68.1s30.4-68.3 68.1-68.3c37.7-.1 68.3 30.4 68.3 68.1.1 33.2-23.8 61.7-56.6 67.3-3.8.7-7.6 1-11.5 1zm.2-124.8c-3.2 0-6.4.3-9.5.8-30.9 5.2-51.7 34.6-46.5 65.5 5.2 30.9 34.6 51.7 65.5 46.5 30.9-5.2 51.7-34.6 46.5-65.5-4.7-27.3-28.3-47.3-56-47.3z" style="fill:url(#SVGID_49_)"/><linearGradient id="SVGID_50_" gradientUnits="userSpaceOnUse" x1="-36.883" y1="471.39" x2="59.287" y2="567.57" gradientTransform="scale(1 -1) rotate(9.607 4135.118 3413.463)"><stop offset="0" style="stop-color:#0065ff"/><stop offset="1" style="stop-color:#0057d8"/></linearGradient><path d="M552.1 196.4c-37.6.1-68.2-30.4-68.3-68s30.4-68.2 68-68.3 68.2 30.4 68.3 68c.1 33.2-23.8 61.6-56.5 67.3-3.8.7-7.6 1-11.5 1zm.3-124.8c-3.2 0-6.4.3-9.6.8-30.9 5.2-51.7 34.6-46.5 65.5 5.2 30.9 34.6 51.7 65.5 46.5 30.9-5.2 51.7-34.6 46.5-65.5-4.7-27.3-28.2-47.2-55.9-47.3z" style="fill:url(#SVGID_50_)"/><linearGradient id="SVGID_51_" gradientUnits="userSpaceOnUse" x1="-36.463" y1="471.322" x2="59.708" y2="567.493" gradientTransform="scale(1 -1) rotate(9.607 4135.118 3413.463)"><stop offset="0" style="stop-color:#0065ff"/><stop offset="1" style="stop-color:#0057d8"/></linearGradient><path d="M552.3 196.2c-37.6-.1-67.9-30.6-67.9-68.1s30.6-67.9 68.1-67.9c33.1.1 61.4 24 66.9 56.6 6.2 37-18.7 72.1-55.7 78.4-3.7.7-7.5 1-11.4 1zm.2-124.8c-3.2 0-6.4.3-9.5.8-30.9 5.2-51.7 34.6-46.5 65.5 5.2 30.9 34.6 51.7 65.5 46.5 30.9-5.2 51.7-34.6 46.5-65.5-4.7-27.3-28.3-47.2-56-47.3z" style="fill:url(#SVGID_51_)"/><linearGradient id="SVGID_52_" gradientUnits="userSpaceOnUse" x1="-36.225" y1="471.503" x2="59.946" y2="567.675" gradientTransform="scale(1 -1) rotate(9.607 4135.118 3413.463)"><stop offset="0" style="stop-color:#0065ff"/><stop offset="1" style="stop-color:#0057d8"/></linearGradient><path d="M552.5 196c-37.6-.1-67.9-30.6-67.8-68.2.1-37.6 30.6-67.9 68.2-67.8 33.1.1 61.3 24 66.9 56.6 6.3 37-18.7 72.1-55.7 78.4-3.9.7-7.7 1-11.6 1zm.2-124.8c-3.2 0-6.4.3-9.5.8-30.9 5.2-51.7 34.6-46.5 65.5 5.2 30.9 34.6 51.7 65.5 46.5 30.9-5.2 51.7-34.6 46.5-65.5-4.7-27.3-28.3-47.2-56-47.3z" style="fill:url(#SVGID_52_)"/><linearGradient id="SVGID_53_" gradientUnits="userSpaceOnUse" x1="-36.242" y1="471.849" x2="59.938" y2="568.029" gradientTransform="scale(1 -1) rotate(9.607 4135.118 3413.463)"><stop offset="0" style="stop-color:#0065ff"/><stop offset="1" style="stop-color:#0057d8"/></linearGradient><path d="M552.7 195.9c-37.6.1-68.2-30.4-68.3-68s30.4-68.2 68-68.3 68.2 30.4 68.3 68c.1 33.2-23.8 61.6-56.5 67.3-3.8.6-7.6.9-11.5 1zM553 71c-3.2 0-6.4.3-9.6.8-30.9 5.2-51.7 34.6-46.5 65.5 5.2 30.9 34.6 51.7 65.5 46.5 30.9-5.2 51.7-34.6 46.5-65.5-4.7-27.2-28.2-47.2-55.9-47.3z" style="fill:url(#SVGID_53_)"/><linearGradient id="SVGID_54_" gradientUnits="userSpaceOnUse" x1="-35.799" y1="471.773" x2="60.372" y2="567.944" gradientTransform="scale(1 -1) rotate(9.607 4135.118 3413.463)"><stop offset="0" style="stop-color:#0065ff"/><stop offset="1" style="stop-color:#0057d8"/></linearGradient><path d="M553 195.7c-37.6 0-68-30.5-68-68 0-37.6 30.5-68 68-68 33.2 0 61.5 23.9 67 56.6 6.3 37-18.6 72.1-55.7 78.4-3.7.6-7.5 1-11.3 1zm.1-124.8c-31.4 0-56.8 25.4-56.8 56.8s25.4 56.8 56.8 56.8 56.8-25.4 56.8-56.8c0-3.2-.3-6.3-.8-9.5-4.7-27.3-28.3-47.3-56-47.3z" style="fill:url(#SVGID_54_)"/><linearGradient id="SVGID_55_" gradientUnits="userSpaceOnUse" x1="-35.584" y1="471.92" x2="60.583" y2="568.096" gradientTransform="scale(1 -1) rotate(9.607 4135.118 3413.463)"><stop offset="0" style="stop-color:#0065ff"/><stop offset="1" style="stop-color:#0057d8"/></linearGradient><path d="M553.1 195.5c-37.6-.1-67.9-30.6-67.8-68.2.1-37.6 30.6-67.9 68.2-67.8 33.1.1 61.3 24 66.9 56.6 6.3 37-18.7 72.1-55.7 78.4-3.9.7-7.8 1-11.6 1zm.1-124.8c-31.4 0-56.8 25.4-56.8 56.8s25.4 56.8 56.8 56.8 56.8-25.4 56.8-56.8c0-3.2-.3-6.4-.8-9.5-4.6-27.3-28.3-47.3-56-47.3z" style="fill:url(#SVGID_55_)"/><linearGradient id="SVGID_56_" gradientUnits="userSpaceOnUse" x1="-35.667" y1="472.384" x2="60.503" y2="568.554" gradientTransform="scale(1 -1) rotate(9.607 4135.118 3413.463)"><stop offset="0" style="stop-color:#0065ff"/><stop offset="1" style="stop-color:#0057d8"/></linearGradient><path d="M553.3 195.3c-37.7.1-68.4-30.4-68.5-68.2s30.4-68.4 68.2-68.5c37.7-.1 68.4 30.4 68.5 68.2.1 33.3-23.9 61.8-56.7 67.5-3.8.7-7.7 1-11.5 1zm.2-124.8c-3.2 0-6.4.3-9.6.8-30.9 5.2-51.7 34.6-46.5 65.5 5.2 30.9 34.6 51.7 65.5 46.5 30.9-5.2 51.7-34.6 46.5-65.5-4.6-27.3-28.2-47.2-55.9-47.3z" style="fill:url(#SVGID_56_)"/><linearGradient id="SVGID_57_" gradientUnits="userSpaceOnUse" x1="-35.304" y1="472.441" x2="60.826" y2="568.561" gradientTransform="scale(1 -1) rotate(9.607 4135.118 3413.463)"><stop offset="0" style="stop-color:#0065ff"/><stop offset="1" style="stop-color:#0057d8"/></linearGradient><path d="M553.6 195.1c-37.6.1-68.2-30.2-68.3-67.8s30.2-68.2 67.8-68.3 68.2 30.2 68.3 67.8c.1 33.2-23.7 61.6-56.4 67.3-3.8.7-7.6 1-11.4 1zm0-124.8c-31.4 0-56.8 25.4-56.8 56.8s25.4 56.8 56.8 56.8 56.8-25.4 56.8-56.8c0-3.2-.3-6.3-.8-9.5-4.7-27.3-28.3-47.2-56-47.3z" style="fill:url(#SVGID_57_)"/><linearGradient id="SVGID_58_" gradientUnits="userSpaceOnUse" x1="-35.175" y1="472.632" x2="60.995" y2="568.802" gradientTransform="scale(1 -1) rotate(9.607 4135.118 3413.463)"><stop offset="0" style="stop-color:#0065ff"/><stop offset="1" style="stop-color:#0057d8"/></linearGradient><path d="M553.6 194.9c-37.7.1-68.3-30.4-68.3-68.1-.1-37.7 30.4-68.3 68.1-68.3s68.3 30.4 68.3 68.1c.1 33.2-23.8 61.7-56.6 67.3-3.8.7-7.6 1-11.5 1zm.3-124.8C522.5 70 497 95.4 497 126.8c-.1 31.4 25.3 56.9 56.7 56.9 31.4.1 56.9-25.3 56.9-56.7 0-18.4-8.9-35.8-23.9-46.4-9.6-6.8-21.1-10.5-32.8-10.5z" style="fill:url(#SVGID_58_)"/><linearGradient id="SVGID_59_" gradientUnits="userSpaceOnUse" x1="-34.948" y1="472.815" x2="61.202" y2="568.965" gradientTransform="scale(1 -1) rotate(9.607 4135.118 3413.463)"><stop offset="0" style="stop-color:#0065ff"/><stop offset="1" style="stop-color:#0057d8"/></linearGradient><path d="M553.9 194.7c-37.7.1-68.3-30.3-68.5-68-.1-37.7 30.3-68.3 68-68.5 37.7-.1 68.3 30.3 68.5 68 .1 33.3-23.8 61.8-56.6 67.5-3.7.7-7.6 1-11.4 1zm.2-124.8c-3.2 0-6.4.3-9.6.8-30.9 5.3-51.7 34.6-46.5 65.5s34.6 51.7 65.5 46.5c30.9-5.3 51.7-34.6 46.5-65.5-4.6-27.2-28.2-47.2-55.9-47.3z" style="fill:url(#SVGID_59_)"/><linearGradient id="SVGID_60_" gradientUnits="userSpaceOnUse" x1="-34.739" y1="472.926" x2="61.411" y2="569.076" gradientTransform="scale(1 -1) rotate(9.607 4135.118 3413.463)"><stop offset="0" style="stop-color:#0065ff"/><stop offset="1" style="stop-color:#0057d8"/></linearGradient><path d="M554 194.6c-37.6.1-68.2-30.4-68.3-68s30.4-68.2 68-68.3 68.2 30.4 68.3 68c.1 33.2-23.8 61.6-56.5 67.3-3.8.6-7.6.9-11.5 1zm.2-124.9c-31.4 0-56.8 25.4-56.8 56.8s25.4 56.8 56.8 56.8 56.8-25.4 56.8-56.8c0-3.2-.3-6.3-.8-9.5-4.7-27.2-28.3-47.2-56-47.3z" style="fill:url(#SVGID_60_)"/><linearGradient id="SVGID_61_" gradientUnits="userSpaceOnUse" x1="-34.526" y1="473.093" x2="61.644" y2="569.263" gradientTransform="scale(1 -1) rotate(9.607 4135.118 3413.463)"><stop offset="0" style="stop-color:#0065ff"/><stop offset="1" style="stop-color:#0057d8"/></linearGradient><path d="M554.2 194.4c-37.7.1-68.3-30.4-68.3-68.1C485.8 88.6 516.3 58 554 58s68.3 30.4 68.3 68.1c.1 33.2-23.8 61.7-56.6 67.3-3.8.6-7.7.9-11.5 1zm.3-124.9c-31.4 0-56.8 25.4-56.9 56.7s25.4 56.8 56.7 56.9c31.4 0 56.8-25.4 56.9-56.7 0-18.4-8.9-35.8-24-46.4-9.5-6.8-21-10.5-32.7-10.5z" style="fill:url(#SVGID_61_)"/><linearGradient id="SVGID_62_" gradientUnits="userSpaceOnUse" x1="-34.09" y1="473" x2="62.081" y2="569.171" gradientTransform="scale(1 -1) rotate(9.607 4135.118 3413.463)"><stop offset="0" style="stop-color:#0065ff"/><stop offset="1" style="stop-color:#0057d8"/></linearGradient><path d="M554.4 194.2c-37.6-.1-67.9-30.6-67.8-68.2.1-37.6 30.6-67.9 68.2-67.8 33.1.1 61.3 24 66.9 56.6 6.2 37-18.7 72.1-55.7 78.4-3.9.6-7.8 1-11.6 1zm.2-124.8c-3.2 0-6.4.3-9.5.8-30.9 5.2-51.7 34.6-46.5 65.5 5.2 30.9 34.6 51.7 65.5 46.5 30.9-5.2 51.7-34.6 46.5-65.5-4.7-27.3-28.4-47.3-56-47.3z" style="fill:url(#SVGID_62_)"/><linearGradient id="SVGID_63_" gradientUnits="userSpaceOnUse" x1="-34.039" y1="473.346" x2="62.131" y2="569.516" gradientTransform="scale(1 -1) rotate(9.607 4135.118 3413.463)"><stop offset="0" style="stop-color:#0065ff"/><stop offset="1" style="stop-color:#0057d8"/></linearGradient><path d="M554.6 194c-37.6.1-68.1-30.4-68.2-68s30.4-68.1 68-68.2c37.6-.1 68.1 30.4 68.2 68 .1 33.2-23.8 61.6-56.5 67.2-3.8.7-7.7 1-11.5 1zm.1-124.8c-3.2 0-6.4.3-9.5.8-30.9 5.2-51.7 34.6-46.5 65.5 5.2 30.9 34.6 51.7 65.5 46.5 30.9-5.2 51.7-34.6 46.5-65.5-4.6-27.3-28.3-47.3-56-47.3z" style="fill:url(#SVGID_63_)"/><linearGradient id="SVGID_64_" gradientUnits="userSpaceOnUse" x1="-33.87" y1="473.537" x2="62.31" y2="569.707" gradientTransform="scale(1 -1) rotate(9.607 4135.118 3413.463)"><stop offset="0" style="stop-color:#0065ff"/><stop offset="1" style="stop-color:#0057d8"/></linearGradient><path d="M554.8 193.8c-37.6.1-68.2-30.4-68.3-68s30.4-68.2 68-68.3 68.2 30.4 68.3 68c.1 33.2-23.8 61.6-56.5 67.3-3.8.7-7.7 1-11.5 1zM555 69c-31.4-.1-56.9 25.3-56.9 56.7s25.3 56.9 56.7 56.9 56.9-25.3 56.9-56.7c0-3.2-.3-6.4-.8-9.6C606.3 89 582.7 69.1 555 69z" style="fill:url(#SVGID_64_)"/><linearGradient id="SVGID_65_" gradientUnits="userSpaceOnUse" x1="-33.443" y1="473.467" x2="62.728" y2="569.639" gradientTransform="scale(1 -1) rotate(9.607 4135.118 3413.463)"><stop offset="0" style="stop-color:#0065ff"/><stop offset="1" style="stop-color:#0057d8"/></linearGradient><path d="M555 193.6c-37.6 0-68-30.5-68-68 0-37.6 30.5-68 68-68 33.1 0 61.5 23.9 67 56.6 6.2 37.1-18.8 72.2-55.9 78.4-3.5.7-7.3 1-11.1 1zm.2-124.8c-3.2 0-6.4.3-9.6.8-30.8 5.3-51.5 34.5-46.2 65.3 5.3 30.8 34.5 51.5 65.3 46.2s51.5-34.5 46.2-65.3c-4.6-27.1-28.1-47-55.7-47z" style="fill:url(#SVGID_65_)"/><linearGradient id="SVGID_66_" gradientUnits="userSpaceOnUse" x1="-33.221" y1="473.601" x2="62.95" y2="569.772" gradientTransform="scale(1 -1) rotate(9.607 4135.118 3413.463)"><stop offset="0" style="stop-color:#0065ff"/><stop offset="1" style="stop-color:#0057d8"/></linearGradient><path d="M555.1 193.4c-37.6-.1-67.9-30.6-67.9-68.1s30.6-67.9 68.1-67.9c33.1.1 61.4 24 66.9 56.6 6.3 37-18.7 72.1-55.7 78.4-3.7.7-7.5 1-11.4 1zm.2-124.8c-3.2 0-6.4.3-9.5.8-30.9 5.2-51.7 34.6-46.5 65.5 5.2 30.9 34.6 51.7 65.5 46.5 30.9-5.2 51.7-34.6 46.5-65.5-4.7-27.3-28.3-47.2-56-47.3z" style="fill:url(#SVGID_66_)"/><linearGradient id="SVGID_67_" gradientUnits="userSpaceOnUse" x1="-33.219" y1="473.996" x2="62.951" y2="570.166" gradientTransform="scale(1 -1) rotate(9.607 4135.118 3413.463)"><stop offset="0" style="stop-color:#0065ff"/><stop offset="1" style="stop-color:#0057d8"/></linearGradient><path d="M555.3 193.2c-37.6.1-68.2-30.4-68.3-68s30.4-68.2 68-68.3 68.2 30.4 68.3 68c.1 33.2-23.8 61.6-56.5 67.3-3.8.7-7.6 1-11.5 1zm.3-124.8c-31.4-.1-56.9 25.3-57 56.7-.1 31.4 25.3 56.9 56.7 57 31.4.1 56.9-25.3 57-56.7 0-3.2-.3-6.4-.8-9.6-4.7-27.3-28.3-47.3-55.9-47.4z" style="fill:url(#SVGID_67_)"/><linearGradient id="SVGID_68_" gradientUnits="userSpaceOnUse" x1="-32.774" y1="473.959" x2="63.398" y2="570.13" gradientTransform="scale(1 -1) rotate(9.607 4135.118 3413.463)"><stop offset="0" style="stop-color:#0065ff"/><stop offset="1" style="stop-color:#0057d8"/></linearGradient><path d="M555.6 193c-37.6 0-68-30.5-68-68s30.5-68 68-68c33.2 0 61.5 24 67 56.6 6.3 37-18.7 72.1-55.7 78.4-3.7.7-7.5 1-11.3 1zm.1-124.8c-31.4 0-56.8 25.4-56.8 56.8s25.4 56.8 56.8 56.8 56.8-25.4 56.8-56.8c0-3.2-.3-6.3-.8-9.5-4.8-27.2-28.4-47.1-56-47.3z" style="fill:url(#SVGID_68_)"/><linearGradient id="SVGID_69_" gradientUnits="userSpaceOnUse" x1="-32.575" y1="474.06" x2="63.596" y2="570.231" gradientTransform="scale(1 -1) rotate(9.607 4135.118 3413.463)"><stop offset="0" style="stop-color:#0065ff"/><stop offset="1" style="stop-color:#0057d8"/></linearGradient><path d="M555.7 192.9c-37.6-.1-67.9-30.6-67.9-68.1s30.6-67.9 68.1-67.9c33.1.1 61.4 24 66.9 56.6 6.3 37-18.7 72.1-55.7 78.4-3.7.6-7.6 1-11.4 1zm.2-124.9c-3.2 0-6.4.3-9.5.8-30.9 5.2-51.7 34.6-46.5 65.5 5.2 30.9 34.6 51.7 65.5 46.5 30.9-5.2 51.7-34.6 46.5-65.5-4.7-27.2-28.4-47.2-56-47.3z" style="fill:url(#SVGID_69_)"/><linearGradient id="SVGID_70_" gradientUnits="userSpaceOnUse" x1="-32.571" y1="474.458" x2="63.599" y2="570.628" gradientTransform="scale(1 -1) rotate(9.607 4135.118 3413.463)"><stop offset="0" style="stop-color:#0065ff"/><stop offset="1" style="stop-color:#0057d8"/></linearGradient><path d="M555.9 192.7c-37.6.1-68.2-30.4-68.3-68s30.4-68.2 68-68.3 68.2 30.4 68.3 68c.1 33.2-23.8 61.6-56.5 67.3-3.8.6-7.7 1-11.5 1zm.2-124.9c-31.4-.1-56.9 25.3-56.9 56.7s25.3 56.9 56.7 56.9c31.4.1 56.9-25.3 56.9-56.7 0-3.2-.3-6.4-.8-9.6-4.6-27.2-28.2-47.2-55.9-47.3z" style="fill:url(#SVGID_70_)"/><linearGradient id="SVGID_71_" gradientUnits="userSpaceOnUse" x1="-32.135" y1="474.378" x2="64.037" y2="570.549" gradientTransform="scale(1 -1) rotate(9.607 4135.118 3413.463)"><stop offset="0" style="stop-color:#0065ff"/><stop offset="1" style="stop-color:#0057d8"/></linearGradient><path d="M556.2 192.5c-37.6 0-68-30.5-68-68s30.5-68 68-68c33.2 0 61.5 24 67 56.6 6.3 37-18.7 72.1-55.7 78.4-3.7.7-7.5 1-11.3 1zm0-124.8c-31.4 0-56.8 25.4-56.8 56.8s25.4 56.8 56.8 56.8 56.8-25.4 56.8-56.8c0-3.2-.3-6.3-.8-9.5-4.7-27.2-28.3-47.2-56-47.3z" style="fill:url(#SVGID_71_)"/><linearGradient id="SVGID_72_" gradientUnits="userSpaceOnUse" x1="-31.932" y1="474.521" x2="64.239" y2="570.692" gradientTransform="scale(1 -1) rotate(9.607 4135.118 3413.463)"><stop offset="0" style="stop-color:#0065ff"/><stop offset="1" style="stop-color:#0057d8"/></linearGradient><path d="M556.2 192.3c-37.6-.1-67.9-30.6-67.9-68.1s30.6-67.9 68.1-67.9c33.1.1 61.4 24 66.9 56.6 6.3 37-18.7 72.1-55.7 78.4-3.6.7-7.5 1-11.4 1zm.2-124.8c-3.2 0-6.4.3-9.5.8-30.9 5.2-51.7 34.6-46.5 65.5 5.2 30.9 34.6 51.7 65.5 46.5 30.9-5.2 51.7-34.6 46.5-65.5-4.7-27.3-28.3-47.3-56-47.3z" style="fill:url(#SVGID_72_)"/><linearGradient id="SVGID_73_" gradientUnits="userSpaceOnUse" x1="20.909" y1="394.896" x2="63.074" y2="437.061" gradientTransform="scale(1 -1) rotate(9.607 4135.118 3413.463)"><stop offset="0" style="stop-color:#0057d8"/><stop offset="1" style="stop-color:#0065ff"/></linearGradient><path d="M619.2 273.4c-3.5 0-6.8-2-8.4-5.2l-38.9-77.9c-2.3-4.6-.5-10.2 4.2-12.6 4.6-2.3 10.2-.5 12.6 4.2l38.9 77.9c2.3 4.6.4 10.2-4.2 12.5-1.4.7-2.8 1.1-4.2 1.1z" style="fill:url(#SVGID_73_)"/><linearGradient id="SVGID_74_" gradientUnits="userSpaceOnUse" x1="-51.847" y1="522.618" x2="84.164" y2="522.618" gradientTransform="scale(1 -1) rotate(9.607 4135.118 3413.463)"><stop offset="0" style="stop-color:#0065ff"/><stop offset="1" style="stop-color:#66a3ff"/></linearGradient><path d="M556.2 192.3c-37.6-.1-67.9-30.6-67.9-68.1s30.6-67.9 68.1-67.9c33.1.1 61.4 24 66.9 56.6 6.3 37-18.7 72.1-55.7 78.4-3.6.7-7.5 1-11.4 1zm.2-124.8c-3.2 0-6.4.3-9.5.8-30.9 5.2-51.7 34.6-46.5 65.5 5.2 30.9 34.6 51.7 65.5 46.5 30.9-5.2 51.7-34.6 46.5-65.5-4.7-27.3-28.3-47.3-56-47.3z" style="fill:url(#SVGID_74_)"/><linearGradient id="SVGID_75_" gradientUnits="userSpaceOnUse" x1="28.741" y1="378.584" x2="67.649" y2="417.503" gradientTransform="scale(1 -1) rotate(9.607 4135.118 3413.463)"><stop offset="0" style="stop-color:#0065ff"/><stop offset="1" style="stop-color:#66a3ff"/></linearGradient><path d="M621.6 281.5c-5.3 0-10.2-3-12.5-7.7l-25.7-51.4c-3.5-6.9-.7-15.3 6.3-18.8 6.9-3.5 15.3-.7 18.8 6.3l25.7 51.4c3.5 6.9.7 15.3-6.2 18.8-2 .9-4.2 1.4-6.4 1.4z" style="fill:url(#SVGID_75_)"/><path class="st100" d="m561 182.1 4.2-2.6-1.8-1.7-3.2 3.2c-.2.3-.2.7.1.9.2.3.5.3.7.2z"/><path class="st100" d="m567.9 180.5-2.5 1.2-5.2-.6-2.9-.6.4-1.8 2.8-1.4c.6-.3 1.3-.5 2-.7 1-.2 2-.1 3 .1l2 .5.4 3.3zM524.6 202.9c-.4-.8-1-1.5-1.7-2-1.3-1-2.2-.9-5-2.2-2.1-1-2.3-1.3-2.3-1.6 0-.4.7-.6 1.3-.8.3-.2.5-.3.8-.4 1.2-.3 2.2.1 3.6.6 1 .3 2.1.6 3.1.7.5.1 1-.1 1.4-.4 1-.9 0-3.3.6-3.5.1 0 .3 0 .4.1.7.4.9 1.3 1.1 3 .2 1.1.3 2.3.3 3.4-.1 1.2-.4 2.3-.9 3.4l-2.7-.3z"/><path class="st101" d="M571.6 237.1c1.1 2 2.1 4.1 3.1 6.4 3.6 8.3 6 17.1 7.2 26.1 1 2.7 2 5.6 3 8.5 2.5 7.8 4.3 15.7 5.5 23.8l-4.7 1.4c-1.6-4.4-4.2-11.3-7.5-19.8-4.2-10.7-6.2-16.1-6.3-16.3-5.8-13.6-9-17.3-7.5-22.4.4-1.7 1.9-4.8 7.2-7.7z"/><linearGradient id="SVGID_76_" gradientUnits="userSpaceOnUse" x1="530.115" y1="307.535" x2="578.465" y2="355.885" gradientTransform="matrix(1 0 0 -1 0 600)"><stop offset=".43" style="stop-color:#0049b0"/><stop offset="1" style="stop-color:#0065ff"/></linearGradient><path d="M556.6 240.6c-2.9 9.3-5.9 18.5-8.8 27.8l-7.9 33.9 4.6 1.2c2.8-6.8 5.6-14.1 8.2-21.7 1.3-3.9 2.6-7.7 3.7-11.5 1.6-3.3 3.8-6.3 6.3-9 4.5-4.7 8.2-6 10.8-11.2 2-3.9 1.3-6.1 1.1-6.6s-.5-1.1-1.2-2.6-1.3-2.7-1.8-3.6c-2 .7-4 1.4-6 1.9-2.9.7-5.9 1.2-9 1.4z" style="fill:url(#SVGID_76_)"/><path class="st103" d="M540.8 295.7c-.1 1.9-.5 3.8-1.2 5.6-1 2.8-2.9 5.2-5.3 6.9-1.5 1-3.3 1.7-5.1 1.9.1.4.1.3.1.7 2.3 0 7.2.1 9.5.1.2-.7.9-1.1 1.6-.9.3.2.5.5.6.9l2.4-.2c.3-1 .5-2 .8-3 1.2-4.1 2.4-8.1 3.7-11.9l-7.1-.1zM582.9 296.1c.8 2 1.5 4.1 1.8 6.3.1 1.9.2 3.4-.7 4.7-.8 1-1.8 1.7-2.9 2.2-.9.5-1.8.9-2.8 1.2.1.4.1.3.2.7l6.3-.2h1.6c.1-.3.3-.6.5-.7.3-.1.6-.1.9.1.2.1.4.3.5.5h1.7c.6 0 1.2-.1 1.8-.2l-.5-3.1c-.1-.6-.2-1.6-.5-3.1-.5-3.5-1.2-7.9-1.4-8.9l-6.5.5z"/><linearGradient id="SVGID_77_" gradientUnits="userSpaceOnUse" x1="522.72" y1="389.745" x2="578" y2="389.745" gradientTransform="matrix(1 0 0 -1 0 600)"><stop offset=".5" style="stop-color:#0057d8"/><stop offset="1" style="stop-color:#0065ff"/></linearGradient><path d="M547.8 218.1s9.4-.9 14-4.8l.6-.5.3-.3c3.4-3 6.9-7.8 8.9-15.5-1.1-5.6-3.6-10.9-7.2-15.4l3.1-4.3c6 5.3 9.7 12.7 10.4 20.7-1.6 8.1-5.2 15.6-10.5 21.9-.1 2.5.1 5 .5 7.5.7 3.8 2.1 7.5 4.1 10.8l-16.6 5.2c1.4-3.1 1.2-5 .7-6.2-1.2-2.8-4.1-3.3-5.3-6.5-.5-1.5-.6-3.2-.1-4.7-7.6.6-15.3-.5-22.3-3.4-2.8-6.9-4.8-14.2-5.8-21.6l5.7.6c.3 2.3.7 4.5 1.3 6.7.7 2.9 1.7 5.8 2.9 8.6 5 1.2 10.2 1.7 15.3 1.2z" style="fill:url(#SVGID_77_)"/><path class="st100" d="M550.6 204.4c.2.1.5.1.7.2.7.1 1.3.3 1.9.7 1 .7.3 2.1 1.2 4 .2.5.4 1 .5 1.6 0 .3.1.5.1.8 0 .6.4 2 1.9 4.8l-.9-.3c-1-.3-1.9-.6-2.8-1.1-2-1-2.3-1.7-2.3-1.9-.1-.2-.1-.4-.1-.6 0-1.1 0-3.1-.1-3.2-.7-.4-.8-.6-.8-.8s.3-.3.5-.8c.1-.2.2-.5.2-.8.1-.8.1-1.7 0-2.6z"/><path d="M553.2 205.2c-.3 3.9.2 7.8 1.5 11.4l.1.4c1.5 4.2 6.2 6.4 10.4 4.8.4-.2.9-.4 1.3-.6l.5-.2h.1c2.4-1.7 3-5 1.3-7.4-.1-.2-.3-.4-.4-.5-1.2-1.3-2.2-2.8-3-4.4-2-3.9-1.7-6.7-4.3-8.2-1.7-.8-3.6-1.1-5.5-.9-1 0-2 .3-2.8.8-.6.5-1.2 1.1-1.5 1.8-.4.7-.6 1.5-.7 2.3.4 0 .9.1 1.3.2.5.1 1.1.3 1.7.5z" style="fill:#243759"/><path class="st20" d="M378.5 409.9s4.2-1.2 4.1-2.4c-.1-.7-3.2.9-3.6.1-.3-.9-.4-1.8-.2-2.8l-1.9 4.2 1.6.9z"/><linearGradient id="SVGID_78_" gradientUnits="userSpaceOnUse" x1="-5150.66" y1="86.77" x2="-5083.22" y2="86.77" gradientTransform="rotate(180 -2393.815 300)"><stop offset=".21" style="stop-color:#3dc7dc;stop-opacity:.8"/><stop offset=".79" style="stop-color:#3dc7dc;stop-opacity:.3"/></linearGradient><ellipse cx="329.3" cy="513.2" rx="33.7" ry="5.4" style="fill:url(#SVGID_78_)"/><path class="st107" d="M344.5 397.1c.5 1.5 1.1 3 1.8 4.4 3 6.1 7.6 11.3 13.4 15.1-.9 2-2.1 3.7-3.6 5.2-7.1 6.6-18.1 3.8-19.3 3.5-7.1-5.1-9.3-14.1-5.8-20.5 2.5-4.8 7.8-7.6 13.5-7.7z"/><path class="st108" d="M346.3 403.2c-.6.1-1.1 0-1.6-.4-.4-.4-.7-.9-.8-1.5-.3-1.2-.5-2.4-.6-3.6l-7.7 1c.1.5.2 1.2.3 1.9.2 1.8.3 2.2.1 2.7-.2.5-.5 1-.9 1.4 1.6.4 3.3.5 5 .4 2.2-.2 4.3-.8 6.2-1.9z"/><path class="st108" d="M348.9 402.8c-2.4.2-5 .5-7.5.9-3.1.5-6.1 1-8.9 1.5l.9 4.4 12.3 1.8 4.4-7.1-1.2-1.5z"/><path class="st109" d="M335.9 400.9c1.2-.1 5.9-.3 8.7-1.5.5-.2 1.8-.8 1.9-1.7 0-.4-.2-.6-.2-1.4 0-.6.1-.7.1-1.1 0-.5-.2-1-.4-1.5.2-.1.5-.3.7-.5.3-.2.4-.4.5-.5.1-.5-.9-.8-1.4-1.8-.2-.4-.3-.8-.4-1.2-.4-.8-.8-1.5-1.3-2.2-.5-.7-1-1.3-1.6-1.9-1.6-1.6-3.7-2.3-6-2.1-2.4.2-4.6 1.5-5.8 3.6l-.2.4c-.3.5-.5 1-.5 1.5-.4 2.9.8 5.7 3.2 7.4l1.4 1 1.3 3.5z"/><path class="st107" d="M329.6 393.8c1.3 2.7 2.9 3.3 3.5 5.9.4 1.8.2 3.8-.6 5.5 2.3.4 4.7 0 6.6-1.3 3.4-2.5 4.6-7.9 2.3-12.9 1.7-1.7 2.3-3.8 1.6-5.4-.6-1.1-1.6-1.8-2.7-2.1-3.2-1.1-8.6-.5-10.7 3.6-1 2.1-1 4.6 0 6.7z"/><path class="st103" d="M324.6 505.6c.3 1.1.5 2.3.5 3.5 0 1.1-.1 2.1-.3 3.1l-1.7.8-.4-.7-.6 1.2c-1 .6-2.1 1.1-3.2 1.4-.9.3-1.8.5-2.7.5-1.5 0-3.6-.3-3.8-1-.1-.5.7-.7 2.3-2 1.1-.8 2-1.8 2.8-2.9.8-1.1 1.4-2.3 1.8-3.6l.3-.9 5 .6zM345.7 504.9c0 1.3.5 2.6 1.3 3.6 2.5 3.1 8 2.6 8.1 4 0 .2-.1.3-.2.5-6.2.6-8.5.3-9.3-.2-.4-.3-1-.5-1.5-.4-.4.1-.7.3-1 .5h-4.2c-.1-1.6 0-3.1.1-4.7.1-.8.2-1.7.4-2.5l6.3-.8z"/><linearGradient id="SVGID_79_" gradientUnits="userSpaceOnUse" x1="-5122.51" y1="156.24" x2="-5122.51" y2="161.07" gradientTransform="rotate(180 -2393.815 300)"><stop offset="0" style="stop-color:#ffc400"/><stop offset="1" style="stop-color:#ff991f"/></linearGradient><path style="fill:url(#SVGID_79_)" d="M330.2 438.9v4.9l9.3-4.2z"/><linearGradient id="SVGID_80_" gradientUnits="userSpaceOnUse" x1="-5335.855" y1="190.954" x2="-5335.855" y2="261.264" gradientTransform="rotate(-180 -2498.449 268.203)"><stop offset=".41" style="stop-color:#0057d8"/><stop offset=".55" style="stop-color:#0059dd"/><stop offset=".72" style="stop-color:#005eeb"/><stop offset=".88" style="stop-color:#0065ff"/></linearGradient><path d="M349.7 437.4c.1 2 .3 5 .4 8.6.3 12.4-1 20.7-1.8 33-.5 7.1-1.2 16.2-2 26.8h-7.2c.1-1.8.1-4.6 0-8-.3-7.2-1.2-10.1-1.1-15.6.1-3.1.5-6.2 1.2-9.2-1.3-6.5-2.6-12.9-3.9-19.4-3.4-1-6.2-3.3-7.7-6.5-1.8-4.1-1.2-8.8 1.6-12.3l20.5 2.6z" style="fill:url(#SVGID_80_)"/><path class="st109" d="m330.5 437.6-2-.5-1.7-.2 1.7 2.5z"/><linearGradient id="SVGID_81_" gradientUnits="userSpaceOnUse" x1="-1137.38" y1="700.664" x2="-1137.38" y2="773.716" gradientTransform="scale(1 -1) rotate(-17.337 -4363.912 -4668.994)"><stop offset="0" style="stop-color:#0057d8"/><stop offset="1" style="stop-color:#0065ff"/></linearGradient><path d="M345.2 437.3c-1.4 3.8-2.8 7.7-4.2 11.6-2.9 8-5.6 15.9-8.1 23.6-2.1 11.5-4.2 22.9-6.2 34.4l-7.2-1.1c1.1-11.9 2.2-23.8 3.3-35.6.3-3.7 2-27 2.7-30.2.1-.6.3-1.1.3-1.1.5-1.6 1.2-3.2 2.1-4.6l1.3.7 16 2.3z" style="fill:url(#SVGID_81_)"/><path class="st108" d="M330.6 438.1c-.3-1-.6-1.8-.8-2.7-1.3 1.5-2.5 3.1-3.6 4.8.3.2.5.4.8.6.2.1.4.2.7.2.4 0 .9-.1 1.3-.3.5-.2.8-1.1 1-1.4s.4-.3.5-.5c.2-.3.2-.5.1-.7z"/><path class="st108" d="M326.9 433.6c.4.3 1.2.6 1.7.9.5.3.9.6 1.3 1-1.2 1.5-2.5 3.1-3.6 4.8-.2-.3-.3-.5-.5-.8s-.2-.6-.6-.9c-.7-.6-1.2-1.3-1.5-2.2-.1-.6-.2-1.2-.1-1.9l2.4-1.9c.3.3.6.7.9 1z"/><path class="st101" d="M361.5 416.7c-2.4-2.6-7.7-13.5-14-14.8-1.2 2-2 3.8-4.4 5-1.2.6-2.4.3-4.2 0-2.1-.3-4.1-1-5.9-1.9-2.1 1.3-4 2.4-6.1 3.7-5.3 3.5-10.1 5.9-11.8 12.9-.5 2.2 1.1 6 2.6 8.4 1.3 2.1 3 5.2 4.9 7.1 1.4-.3 2.7-1 3.8-1.9.6-.6 1.2-1.2 1.6-1.9-1.2-1.6-2.3-3.3-3.3-5.1-1.3-1.7-2.4-3.5-3.3-5.5 1.1-1.5 2.4-2.8 3.9-3.8 1.6-1.1 3.3-2.1 5-2.9.1 1.6.2 3.2.5 4.8.4 2.2 1 4.4 1.8 6.6-.8 1.4-1.6 2.7-2.4 4.1-.6 1-1.2 1.9-1.8 2.9 4.3 2.6 9.3 4 14.3 4 2.9-.1 5.9-.6 8.6-1.6-.4-4.4-1.2-8.7-2.4-13 .4-1 .8-1.7 1.1-2.8.5-1.1.8-2.3.8-3.5 0-.8-.5-2-.6-3-.1-.7-.4-2.1-.4-2.9 1.4 1.8 7.6 11.9 10.1 12.1 3.9.3 18.4-11.4 19.8-13.6-1.1-1-2.5-1.8-3.6-2.9-2 2.2-11.5 8.1-14.6 9.5z"/></g></svg>