<svg width="20" height="20" viewBox="0 0 20 20" fill="none" xmlns="http://www.w3.org/2000/svg">
  <g clip-path="url(#clip0)">
    <path d="M19.9999 10.2298C19.9999 9.54977 19.9454 8.86659 19.8295 8.19836H10.2041V12.0483H15.6104C15.3768 13.2908 14.6567 14.3897 13.6108 15.0869V17.5865H16.9226C18.8721 15.8442 19.9999 13.2724 19.9999 10.2298Z" fill="#4285F4"/>
    <path d="M10.204 19.9998C12.959 19.9998 15.2726 19.1043 16.9262 17.5865L13.6144 15.0869C12.7362 15.6968 11.5834 16.0424 10.2076 16.0424C7.54158 16.0424 5.28338 14.2818 4.50251 11.9087H1.08252V14.4872C2.77421 17.8553 6.30743 19.9998 10.204 19.9998Z" fill="#34A853"/>
    <path d="M4.49903 11.9087C4.04903 10.6662 4.04903 9.33739 4.49903 8.09488V5.51636H1.08258C-0.364223 8.33704 -0.364223 11.6664 1.08258 14.4871L4.49903 11.9087Z" fill="#FBBC04"/>
    <path d="M10.204 3.95773C11.6525 3.93591 13.0508 4.47227 14.1107 5.45909L17.0298 2.54C15.1876 0.791818 12.7416 -0.157818 10.204 -0.129636C6.30743 -0.129636 2.77421 2.01486 1.08252 5.38668L4.49897 7.9652C5.27629 5.58849 7.53803 3.95773 10.204 3.95773Z" fill="#EA4335"/>
  </g>
  <defs>
    <clipPath id="clip0">
      <rect width="20" height="20" fill="white"/>
    </clipPath>
  </defs>
</svg>